<?xml version="1.0" encoding="UTF-8"?>
<!DOCTYPE svg PUBLIC "-//W3C//DTD SVG 1.1//EN" "http://www.w3.org/Graphics/SVG/1.1/DTD/svg11.dtd">
<!-- Creator: CorelDRAW -->
<svg xmlns="http://www.w3.org/2000/svg" xml:space="preserve" width="438.66mm" height="93.0686mm" version="1.1" style="shape-rendering:geometricPrecision; text-rendering:geometricPrecision; image-rendering:optimizeQuality; fill-rule:evenodd; clip-rule:evenodd"
viewBox="0 0 43866.02 9306.86"
 xmlns:xlink="http://www.w3.org/1999/xlink"
 xmlns:xodm="http://www.corel.com/coreldraw/odm/2003">
 <defs>
  <style type="text/css">
   <![CDATA[
    .fil4 {fill:#353535;fill-rule:nonzero}
    .fil1 {fill:url(#id0)}
    .fil0 {fill:url(#id1)}
    .fil2 {fill:url(#id2)}
    .fil3 {fill:url(#id3)}
   ]]>
  </style>
  <linearGradient id="id0" gradientUnits="userSpaceOnUse" x1="3369.54" y1="8306.02" x2="8159.63" y2="2053.33">
   <stop offset="0" style="stop-opacity:1; stop-color:#FF312F"/>
   <stop offset="0.521569" style="stop-opacity:1; stop-color:#FF6519"/>
   <stop offset="1" style="stop-opacity:1; stop-color:#FF9903"/>
  </linearGradient>
  <linearGradient id="id1" gradientUnits="userSpaceOnUse" x1="2915.51" y1="8902.26" x2="8869" y2="871.31">
   <stop offset="0" style="stop-opacity:1; stop-color:#5130F2"/>
   <stop offset="0.419608" style="stop-opacity:1; stop-color:#3059EA"/>
   <stop offset="1" style="stop-opacity:1; stop-color:#0E83E2"/>
  </linearGradient>
  <linearGradient id="id2" gradientUnits="userSpaceOnUse" xlink:href="#id0" x1="3369.54" y1="8306.02" x2="8159.63" y2="2053.33">
  </linearGradient>
  <linearGradient id="id3" gradientUnits="userSpaceOnUse" xlink:href="#id0" x1="8736.43" y1="1884.88" x2="10861.55" y2="2473.59">
  </linearGradient>
 </defs>
 <g id="Layer_x0020_1">
  <metadata id="CorelCorpID_0Corel-Layer"/>
  <g id="_1477327776">
   <path class="fil0" d="M11345.29 2329.7c242.59,0 441.07,199.02 441.07,442.23l0 5653.68c0,461.19 -356.8,842.83 -807.26,881.25l0 2.54 -41.52 0c-11.07,0.43 -22.18,0.7 -33.34,0.7l0 -0.7 -10023.97 0 0 0.64c-10.65,0 -21.24,-0.26 -31.81,-0.64l-51.09 0 0 -3.32c-446.67,-42.25 -799.21,-422.09 -799.21,-880.54l0 -7077.56c0,-453.67 345.18,-830.33 785.21,-879.1l0 -5.14 76.04 0c6.93,-0.18 13.89,-0.27 20.86,-0.27l0 0.27 7515.33 0c242.58,0 441.06,199.01 441.06,442.26 0,243.24 -198.48,442.23 -441.06,442.23l-6701.05 0 2982.28 2990.31c198.25,198.79 198.25,524.05 -0.01,722.84l-39.61 39.72c-198.26,198.8 -522.65,198.8 -720.9,0.01l-3036.04 -3044.21 0 6367.99 9153.3 0c0,0 870.78,4.88 870.78,4.88 0,0 -0.11,-596.05 -0.11,-596.05l0 -5061.79c0,-243.21 198.46,-442.23 441.05,-442.23z"/>
   <path class="fil1" d="M7750.89 4254.18l2903.36 -1732.49 0 0c-682.67,743.39 -1385.6,1511.11 -1385.6,1511.11 0,0 -1421.03,1502 -1421.03,1502 -657.94,752 -1259.47,1063.29 -1674.66,1046.91 -921.35,-18.05 -1424.98,-694.61 -2025.21,-1368.03l-3025.66 3209.77 -247.16 0.88 0.43 -1186.52c946.97,-1004.55 2362.57,-2498.54 2362.57,-2498.54 1015.83,-1222.85 985.35,-857.46 2395.17,588.98 577.43,447.96 659.95,340.93 1565.9,-549.35 0,0 260.44,-247.64 551.89,-524.72z"/>
   <path class="fil2" d="M7750.89 4254.18l2903.36 -1732.49 -617.7 -586.67c-443.47,469.47 -961.62,1014.84 -1495.32,1567.7 0,0 -420.17,399.51 -790.34,751.46z"/>
  </g>
  <polygon class="fil3" points="7750.87,4254.18 10654.25,2521.69 10100.58,1865.9 11736.79,3.24 8919.71,1879.41 9498.73,2502.68 7750.87,4254.18 10654.25,2521.69 "/>
  <path class="fil4" d="M13624.09 3633.7l0 619.05 502.24 0 0 2733.17 -502.24 0 0 619.05 1822.11 0 0 -619.05 -619.05 0 0 -543.13 689.13 0c1004.5,0 1670.27,-572.33 1670.27,-1436.67 0,-823.45 -624.89,-1372.42 -1570.99,-1372.42l-1991.47 0zm1203.06 2166.68l0 -1518.43 765.05 0c543.13,0 905.22,292 905.22,724.17 0,478.89 -362.09,794.26 -905.22,794.26l-765.05 0z"/>
  <path id="_1" class="fil4" d="M18833.46 4778.36c-840.97,0 -1495.07,613.21 -1495.07,1448.34 0,840.98 654.1,1465.87 1495.07,1465.87 835.14,0 1495.07,-624.89 1495.07,-1465.87 0,-835.13 -659.93,-1448.34 -1495.07,-1448.34zm5.84 2301c-478.89,0 -823.45,-379.61 -823.45,-852.66 0,-467.2 344.56,-835.13 823.45,-835.13 467.21,0 817.62,367.93 817.62,835.13 0,473.05 -350.41,852.66 -817.62,852.66z"/>
  <polygon id="_2" class="fil4" points="25117.42,5461.65 25117.42,4842.6 23750.83,4842.6 23750.83,5461.65 24130.44,5461.65 23680.75,6670.55 23044.18,4842.6 22571.13,4842.6 21940.4,6658.87 21496.55,5461.65 21876.16,5461.65 21876.16,4842.6 20509.57,4842.6 20509.57,5461.65 20813.26,5461.65 21654.23,7604.97 22232.4,7604.97 22810.57,5917.18 23382.91,7604.97 23972.76,7604.97 24813.73,5461.65 "/>
  <path id="_3" class="fil4" d="M28113.4 6179.98c0,-829.29 -572.33,-1401.62 -1378.27,-1401.62 -840.97,0 -1442.51,624.89 -1442.51,1448.34 0,817.62 589.85,1465.87 1471.71,1465.87 630.73,0 1144.66,-344.56 1302.35,-852.65l-718.34 0c-105.12,169.36 -297.84,256.96 -560.65,256.96 -473.05,0 -730.01,-262.8 -817.61,-607.37l2119.96 0 5.84 0c17.52,-105.12 17.52,-210.25 17.52,-309.53zm-1360.75 -870.17c414.65,0 659.93,274.48 718.33,648.25l-1500.9 0c87.6,-356.25 350.4,-648.25 782.57,-648.25z"/>
  <path id="_4" class="fil4" d="M30706.41 4795.88c-478.89,0 -858.5,146 -1132.98,344.56l0 -297.84 -1109.63 0 0 619.05 438.01 0 0 1524.27 -438.01 0 0 619.05 1798.76 0 0 -619.05 -689.13 0 0 -1302.35c262.8,-93.44 636.57,-181.04 1132.98,-198.56l0 -689.13z"/>
  <path id="_5" class="fil4" d="M36429.72 6985.92l-449.69 0 0 -905.22c0,-800.09 -525.61,-1325.7 -1197.22,-1325.7 -455.53,0 -747.54,140.16 -1039.54,420.48 -216.09,-268.64 -537.29,-420.48 -905.22,-420.48 -350.41,0 -554.81,105.12 -741.69,286.16l0 -198.56 -1109.63 0 0 619.05 438.01 0 0 1524.27 -438.01 0 0 619.05 1559.31 0 0 -619.05 -449.68 0 0 -1243.95c186.88,-262.8 402.96,-373.76 601.53,-373.76 426.32,0 665.77,268.64 665.77,753.37l0 864.34 -438.01 0 0 619.05 1559.31 0 0 -619.05 -443.85 0 0 -905.22c0,-116.8 -11.68,-227.76 -35.04,-332.89 192.72,-280.32 426.33,-379.6 636.57,-379.6 420.49,0 665.78,268.64 665.78,753.37l0 864.34 -438.01 0 0 619.05 1559.31 0 0 -619.05z"/>
  <path id="_6" class="fil4" d="M39560.02 5461.65l443.85 0 0 -619.05 -1115.46 0 0 192.72c-227.77,-163.52 -513.93,-256.96 -846.82,-256.96 -770.89,0 -1389.95,642.41 -1389.95,1448.34 0,800.1 619.06,1442.51 1389.95,1442.51 332.89,0 619.05,-93.44 846.82,-256.96l0 192.72 1115.46 0 0 -619.05 -443.85 0 0 -1524.27zm-1419.15 1623.55c-473.05,0 -817.61,-402.97 -817.61,-858.5 0,-461.36 344.56,-864.33 817.61,-864.33 262.81,0 508.09,87.6 747.54,321.2l0 1080.42c-239.45,233.61 -484.73,321.21 -747.54,321.21z"/>
  <path id="_7" class="fil4" d="M41218.61 4375.39c251.12,0 455.53,-192.72 455.53,-443.85 0,-256.96 -204.41,-449.69 -455.53,-449.69 -256.97,0 -461.37,192.73 -461.37,449.69 0,251.13 204.4,443.85 461.37,443.85zm782.57 2610.53l-449.68 0 0 -2143.32 -1109.63 0 0 619.05 438.01 0 0 1524.27 -438.01 0 0 619.05 1559.31 0 0 -619.05z"/>
  <polygon id="_8" class="fil4" points="43864.18,6985.92 43414.5,6985.92 43414.5,3458.49 42304.87,3458.49 42304.87,4077.54 42742.88,4077.54 42742.88,6985.92 42304.87,6985.92 42304.87,7604.97 43864.18,7604.97 "/>
 </g>
</svg>
